<svg xmlns="http://www.w3.org/2000/svg" xml:lang="en" height="123.88pt" width="214.60000000000002pt" viewBox="-2.0000000000000178 -16.58 214.60000000000002 123.88"><path d="M 97.2 32.4 a 4.05 4.05 -270 1 1 0.0 8.100000000000001" style="stroke:black;fill:none;stroke-width:2;" /><path d="M 97.2 40.5 a 4.05 4.05 -270 1 1 0.0 8.100000000000001" style="stroke:black;fill:none;stroke-width:2;" /><path d="M 97.2 48.6 a 4.05 4.05 -270 1 1 0.0 8.100000000000001" style="stroke:black;fill:none;stroke-width:2;" /><path d="M 97.2 56.7 a 4.05 4.05 -270 1 1 0.0 8.099999999999994" style="stroke:black;fill:none;stroke-width:2;" /><circle cx="194.39999999999998" cy="48.599999999999994" r="16.2" style="stroke:black;fill:none;stroke-width:2;" /><path d="M 0.0,-0.0 L 32.4,-0.0 L 35.099999999999994,-8.1 L 40.5,8.1 L 45.89999999999999,-8.1 L 51.3,8.1 L 56.699999999999996,-8.1 L 62.099999999999994,8.1 L 64.8,-0.0 L 97.19999999999999,-0.0" style="stroke:black;fill:none;stroke-width:2;stroke-linecap:round;stroke-linejoin:round;" /><path d="M 0.0,-0.0 L -8.927675165784204e-15,48.599999999999994 L -1.785535033156841e-14,97.19999999999999" style="stroke:black;fill:none;stroke-width:2;stroke-linecap:round;stroke-linejoin:round;" /><path d="M 97.19999999999999,-0.0 L 129.6,-0.0 M 137.376,-3.24 L 155.51999999999998,-14.58 M 162.0,-0.0 L 194.39999999999998,-0.0" style="stroke:black;fill:none;stroke-width:2;stroke-linecap:round;stroke-linejoin:round;" /><path d="M 97.19999999999999,-0.0 L 97.19999999999999,32.4 M 97.19999999999997,64.8 L 97.19999999999997,97.19999999999999" style="stroke:black;fill:none;stroke-width:2;stroke-linecap:round;stroke-linejoin:round;" /><path d="M 194.39999999999998,-0.0 L 194.39999999999998,32.4 L 194.39999999999998,32.4 M 194.39999999999998,64.8 L 194.39999999999998,64.8 L 194.39999999999995,97.19999999999999" style="stroke:black;fill:none;stroke-width:2;stroke-linecap:round;stroke-linejoin:round;" /><path d="M 191.15999999999997,40.5 L 197.64,40.5" style="stroke:black;fill:none;stroke-width:2;stroke-linecap:round;stroke-linejoin:round;" /><path d="M 194.39999999999998,53.459999999999994 L 194.39999999999998,59.94" style="stroke:black;fill:none;stroke-width:2;stroke-linecap:round;stroke-linejoin:round;" /><path d="M 191.15999999999997,56.699999999999996 L 197.64,56.699999999999996" style="stroke:black;fill:none;stroke-width:2;stroke-linecap:round;stroke-linejoin:round;" /><path d="M 0.0,97.19999999999999 L 45.684,97.19999999999999 M 45.684,89.1 L 45.684,105.3 M 51.51599999999999,89.1 L 51.51599999999999,105.3 M 51.51599999999999,97.19999999999999 L 97.19999999999999,97.19999999999999" style="stroke:black;fill:none;stroke-width:2;stroke-linecap:round;stroke-linejoin:round;" /><path d="M 97.19999999999999,97.19999999999999 L 129.6,97.19999999999999 L 132.29999999999998,89.1 L 137.7,105.3 L 143.09999999999997,89.1 L 148.49999999999997,105.3 L 153.9,89.1 L 159.29999999999998,105.3 L 162.0,97.19999999999999 L 194.39999999999998,97.19999999999999" style="stroke:black;fill:none;stroke-width:2;stroke-linecap:round;stroke-linejoin:round;" /><circle cx="133.488" cy="-0.0" r="3.888" style="stroke:black;fill:white;stroke-width:2;" /><circle cx="158.112" cy="-0.0" r="3.888" style="stroke:black;fill:white;stroke-width:2;" /></svg>