<svg xmlns="http://www.w3.org/2000/svg" xml:lang="en" height="115.78pt" width="198.40000000000003pt" viewBox="-2.0000000000000178 -16.58 198.40000000000003 115.78"><path d="M 97.2 32.4 a 4.05 4.05 -270 1 1 0.0 8.100000000000001" style="stroke:black;fill:none;stroke-width:2;" /><path d="M 97.2 40.5 a 4.05 4.05 -270 1 1 0.0 8.100000000000001" style="stroke:black;fill:none;stroke-width:2;" /><path d="M 97.2 48.6 a 4.05 4.05 -270 1 1 0.0 8.100000000000001" style="stroke:black;fill:none;stroke-width:2;" /><path d="M 97.2 56.7 a 4.05 4.05 -270 1 1 0.0 8.099999999999994" style="stroke:black;fill:none;stroke-width:2;" /><path d="M 97.2 32.4 a 4.05 4.05 -270 1 1 0.0 8.100000000000001" style="stroke:black;fill:none;stroke-width:2;" /><path d="M 97.2 40.5 a 4.05 4.05 -270 1 1 0.0 8.100000000000001" style="stroke:black;fill:none;stroke-width:2;" /><path d="M 97.2 48.6 a 4.05 4.05 -270 1 1 0.0 8.100000000000001" style="stroke:black;fill:none;stroke-width:2;" /><path d="M 97.2 56.7 a 4.05 4.05 -270 1 1 0.0 8.099999999999994" style="stroke:black;fill:none;stroke-width:2;" /><path d="M 0.0,-0.0 L 32.4,-0.0 L 35.099999999999994,-8.1 L 40.5,8.1 L 45.89999999999999,-8.1 L 51.3,8.1 L 56.699999999999996,-8.1 L 62.099999999999994,8.1 L 64.8,-0.0 L 97.19999999999999,-0.0" style="stroke:black;fill:none;stroke-width:2;stroke-linecap:round;stroke-linejoin:round;" /><path d="M 0.0,-0.0 L -8.927675165784204e-15,48.599999999999994 L -1.785535033156841e-14,97.19999999999999" style="stroke:black;fill:none;stroke-width:2;stroke-linecap:round;stroke-linejoin:round;" /><path d="M 97.19999999999999,-0.0 L 129.6,-0.0 M 137.376,-3.24 L 155.51999999999998,-14.58 M 162.0,-0.0 L 194.39999999999998,-0.0" style="stroke:black;fill:none;stroke-width:2;stroke-linecap:round;stroke-linejoin:round;" /><path d="M 97.19999999999999,-0.0 L 97.19999999999999,32.4 M 97.19999999999997,64.8 L 97.19999999999997,97.19999999999999" style="stroke:black;fill:none;stroke-width:2;stroke-linecap:round;stroke-linejoin:round;" /><path d="M 97.19999999999999,-0.0 L 129.6,-0.0 M 137.376,-3.24 L 155.51999999999998,-14.58 M 162.0,-0.0 L 194.39999999999998,-0.0" style="stroke:black;fill:none;stroke-width:2;stroke-linecap:round;stroke-linejoin:round;" /><path d="M 97.19999999999999,-0.0 L 97.19999999999999,32.4 M 97.19999999999997,64.8 L 97.19999999999997,97.19999999999999" style="stroke:black;fill:none;stroke-width:2;stroke-linecap:round;stroke-linejoin:round;" /><circle cx="133.488" cy="-0.0" r="3.888" style="stroke:black;fill:white;stroke-width:2;" /><circle cx="158.112" cy="-0.0" r="3.888" style="stroke:black;fill:white;stroke-width:2;" /><circle cx="133.488" cy="-0.0" r="3.888" style="stroke:black;fill:white;stroke-width:2;" /><circle cx="158.112" cy="-0.0" r="3.888" style="stroke:black;fill:white;stroke-width:2;" /></svg>