<svg xmlns="http://www.w3.org/2000/svg" xml:lang="en" height="1454.7208pt" width="521.7844pt" viewBox="-160.14439999999996 -1452.7208 521.7844 1454.7208"><circle cx="3.9678556292374245e-14" cy="-648.0" r="32.4" style="stroke:black;fill:none;stroke-width:4;" /><path d="M 0.0,-0.0 L 3.769462847775553e-14,-615.6 L 3.769462847775553e-14,-615.6 M 4.1662484106992955e-14,-680.4 L 4.1662484106992955e-14,-680.4 L 7.935711258474849e-14,-1296.0" style="stroke:black;fill:none;stroke-width:4;stroke-linecap:round;stroke-linejoin:round;" /><path d="M 6.480000000000039,-631.8 L -6.479999999999961,-631.8" style="stroke:black;fill:none;stroke-width:4;stroke-linecap:round;stroke-linejoin:round;" /><path d="M 4.0273734636759856e-14,-657.72 L 4.1067305762607344e-14,-670.68" style="stroke:black;fill:none;stroke-width:4;stroke-linecap:round;stroke-linejoin:round;" /><path d="M 6.48000000000004,-664.1999999999999 L -6.47999999999996,-664.1999999999999" style="stroke:black;fill:none;stroke-width:4;stroke-linecap:round;stroke-linejoin:round;" /><path d="M 7.935711258474849e-14,-1296.0 L 147.42000000000007,-1296.0 L 152.82000000000008,-1312.2 L 163.62000000000006,-1279.8 L 174.42000000000007,-1312.2 L 185.22000000000008,-1279.8 L 196.02000000000007,-1312.2 L 206.82000000000005,-1279.8 L 212.22000000000008,-1296.0 L 359.64000000000004,-1296.0" style="stroke:black;fill:none;stroke-width:4;stroke-linecap:round;stroke-linejoin:round;" /><g><g><g><symbol id="STIXTwoMathRegular_3321" width="8.868" height="51.216" viewBox="0 -31.524 8.868 51.216"><path d="M 3.324 -1.5 L 3.324 -1.5 L 6.6 -6.42 Q 6.768 -6.66 6.87 -6.864 Q 6.972 -7.068 6.972 -7.212 Q 6.972 -7.392 6.816 -7.458 Q 6.66 -7.524 6.252 -7.524 L 6.276 -7.884 L 8.868 -7.884 L 8.844 -7.524 Q 8.52 -7.524 8.292 -7.428 Q 8.064 -7.332 7.83 -7.062 Q 7.596 -6.792 7.224 -6.24 L 2.82 0.06 L 2.424 0.06 L 1.752 -6.432 Q 1.68 -7.032 1.488 -7.278 Q 1.296 -7.524 0.816 -7.524 L 0.84 -7.884 L 3.78 -7.884 L 3.744 -7.524 Q 3.288 -7.524 3.024 -7.344 Q 2.76 -7.164 2.784 -6.756 Q 2.784 -6.696 2.802 -6.54 Q 2.82 -6.384 2.82 -6.324 L 3.18 -2.904 L 3.264 -1.5 Z " /></symbol><use href="#STIXTwoMathRegular_3321" transform="translate(-97.938 -832.008) scale(5.667)" fill="black" /><symbol id="STIXTwoMathRegular_1138" width="5.112" height="51.216" viewBox="0 -31.524 5.112 51.216"><path d="M 5.112 0 L 5.112 0 L 0.96 0 L 0.96 -0.336 Q 1.812 -0.336 2.16 -0.516 Q 2.508 -0.696 2.508 -1.14 L 2.508 -6.216 Q 2.508 -6.528 2.424 -6.666 Q 2.34 -6.804 2.112 -6.804 Q 1.932 -6.804 1.548 -6.756 Q 1.164 -6.708 0.888 -6.612 L 0.888 -7.008 L 3.216 -7.668 L 3.564 -7.668 L 3.564 -1.14 Q 3.564 -0.696 3.924 -0.516 Q 4.284 -0.336 5.112 -0.336 Z " /></symbol><use href="#STIXTwoMathRegular_1138" transform="translate(-62.442 -763.797) scale(3.967)" fill="black" /></g></g></g><g><g><g><symbol id="STIXTwoMathRegular_4244" width="3.756" height="51.216" viewBox="0 -31.524 3.756 51.216"><path d="M 3.756 0 L 3.756 0 L 2.76 0 L 2.76 -6.348 L 1.212 -6.348 L 1.212 -6.996 Q 1.848 -7.092 2.256 -7.23 Q 2.664 -7.368 3 -7.56 L 3.756 -7.56 Z " /></symbol><use href="#STIXTwoMathRegular_4244" transform="translate(38.88 -813.852) scale(5.667)" fill="black" /><symbol id="STIXTwoMathRegular_4243" width="5.556" height="51.216" viewBox="0 -31.524 5.556 51.216"><path d="M 3.048 0.144 L 3.048 0.144 Q 1.884 0.144 1.218 -0.882 Q 0.552 -1.908 0.552 -3.804 Q 0.552 -5.712 1.218 -6.702 Q 1.884 -7.692 3.048 -7.692 Q 4.224 -7.692 4.89 -6.696 Q 5.556 -5.7 5.556 -3.804 Q 5.556 -1.908 4.89 -0.882 Q 4.224 0.144 3.048 0.144 Z M 3.048 -0.672 L 3.048 -0.672 Q 3.732 -0.672 4.152 -1.41 Q 4.572 -2.148 4.572 -3.804 Q 4.572 -5.46 4.152 -6.174 Q 3.732 -6.888 3.048 -6.888 Q 2.376 -6.888 1.95 -6.174 Q 1.524 -5.46 1.524 -3.804 Q 1.524 -2.148 1.95 -1.41 Q 2.376 -0.672 3.048 -0.672 Z " /></symbol><use href="#STIXTwoMathRegular_4243" transform="translate(73.424 -813.852) scale(5.667)" fill="black" /><symbol id="STIXTwoMathRegular_3680" width="6.324" height="51.216" viewBox="0 -31.524 6.324 51.216"><path d="M 2.58 0 L 2.58 0 L 0.012 -7.884 L 1.104 -7.884 L 2.4 -3.636 Q 2.604 -2.94 2.772 -2.334 Q 2.94 -1.728 3.168 -1.032 L 3.228 -1.032 Q 3.444 -1.728 3.618 -2.334 Q 3.792 -2.94 3.996 -3.636 L 5.28 -7.884 L 6.324 -7.884 L 3.768 0 Z " /></symbol><use href="#STIXTwoMathRegular_3680" transform="translate(107.968 -813.852) scale(5.667)" fill="black" /></g></g></g><g><g><g><symbol id="STIXTwoMathRegular_3317" width="7.296" height="51.216" viewBox="-0.108 -31.524 7.296 51.216"><path d="M 6.948 -6.228 L 6.948 -6.228 Q 6.948 -5.592 6.708 -5.16 Q 6.468 -4.728 6.084 -4.452 Q 5.7 -4.176 5.262 -4.026 Q 4.824 -3.876 4.428 -3.804 L 4.428 -3.744 Q 4.644 -3.6 4.836 -3.306 Q 5.028 -3.012 5.31 -2.46 Q 5.592 -1.908 6.084 -0.972 Q 6.288 -0.612 6.534 -0.486 Q 6.78 -0.36 7.188 -0.36 L 7.116 0 L 5.292 0 Q 4.956 -0.744 4.728 -1.242 Q 4.5 -1.74 4.332 -2.076 Q 4.164 -2.412 4.038 -2.676 Q 3.912 -2.94 3.768 -3.216 Q 3.636 -3.468 3.48 -3.546 Q 3.324 -3.624 3 -3.624 L 2.748 -3.624 L 2.304 -1.488 Q 2.208 -0.996 2.238 -0.75 Q 2.268 -0.504 2.508 -0.432 Q 2.748 -0.36 3.264 -0.36 L 3.204 0 L -0.108 0 L -0.036 -0.36 Q 0.408 -0.36 0.648 -0.432 Q 0.888 -0.504 1.014 -0.744 Q 1.14 -0.984 1.236 -1.488 L 2.292 -6.636 Q 2.364 -6.972 2.328 -7.164 Q 2.292 -7.356 2.082 -7.44 Q 1.872 -7.524 1.392 -7.524 L 1.464 -7.884 L 4.284 -7.884 Q 5.544 -7.884 6.246 -7.494 Q 6.948 -7.104 6.948 -6.228 Z M 3.504 -7.38 L 3.504 -7.38 L 2.832 -4.068 L 3.204 -4.056 Q 3.924 -4.08 4.506 -4.29 Q 5.088 -4.5 5.424 -4.956 Q 5.76 -5.412 5.76 -6.18 Q 5.76 -6.504 5.622 -6.786 Q 5.484 -7.068 5.148 -7.242 Q 4.812 -7.416 4.212 -7.416 Q 3.984 -7.416 3.846 -7.41 Q 3.708 -7.404 3.504 -7.38 Z " /></symbol><use href="#STIXTwoMathRegular_3317" transform="translate(145.497 -1531.996) scale(5.667)" fill="black" /><symbol id="STIXTwoMathRegular_1138" width="5.112" height="51.216" viewBox="0 -31.524 5.112 51.216"><path d="M 5.112 0 L 5.112 0 L 0.96 0 L 0.96 -0.336 Q 1.812 -0.336 2.16 -0.516 Q 2.508 -0.696 2.508 -1.14 L 2.508 -6.216 Q 2.508 -6.528 2.424 -6.666 Q 2.34 -6.804 2.112 -6.804 Q 1.932 -6.804 1.548 -6.756 Q 1.164 -6.708 0.888 -6.612 L 0.888 -7.008 L 3.216 -7.668 L 3.564 -7.668 L 3.564 -1.14 Q 3.564 -0.696 3.924 -0.516 Q 4.284 -0.336 5.112 -0.336 Z " /></symbol><use href="#STIXTwoMathRegular_1138" transform="translate(189.969 -1464.125) scale(3.967)" fill="black" /></g></g></g><g><g><g><symbol id="STIXTwoMathRegular_4244" width="3.756" height="51.216" viewBox="0 -31.524 3.756 51.216"><path d="M 3.756 0 L 3.756 0 L 2.76 0 L 2.76 -6.348 L 1.212 -6.348 L 1.212 -6.996 Q 1.848 -7.092 2.256 -7.23 Q 2.664 -7.368 3 -7.56 L 3.756 -7.56 Z " /></symbol><use href="#STIXTwoMathRegular_4244" transform="translate(136.13 -1404.356) scale(5.667)" fill="black" /><symbol id="STIXTwoMathRegular_868" width="8.772" height="51.216" viewBox="0 -31.524 8.772 51.216"><path d="M 8.496 0 L 8.496 0 L 5.364 0 L 5.364 -0.864 Q 5.928 -1.32 6.318 -1.95 Q 6.708 -2.58 6.906 -3.282 Q 7.104 -3.984 7.104 -4.644 Q 7.104 -6 6.456 -6.762 Q 5.808 -7.524 4.704 -7.524 Q 3.564 -7.524 2.904 -6.75 Q 2.244 -5.976 2.244 -4.644 Q 2.244 -3.996 2.436 -3.282 Q 2.628 -2.568 3.018 -1.932 Q 3.408 -1.296 3.984 -0.852 L 3.984 0 L 0.816 0 L 0.564 -2.124 L 0.912 -2.124 Q 1.02 -1.716 1.122 -1.464 Q 1.224 -1.212 1.41 -1.092 Q 1.596 -0.972 1.932 -0.972 L 3.024 -0.972 L 3.024 -1.044 Q 2.688 -1.296 2.322 -1.626 Q 1.956 -1.956 1.644 -2.388 Q 1.332 -2.82 1.14 -3.39 Q 0.948 -3.96 0.948 -4.692 Q 0.948 -5.688 1.428 -6.438 Q 1.908 -7.188 2.76 -7.608 Q 3.612 -8.028 4.716 -8.028 Q 5.832 -8.028 6.66 -7.608 Q 7.488 -7.188 7.944 -6.438 Q 8.4 -5.688 8.4 -4.704 Q 8.4 -3.972 8.196 -3.402 Q 7.992 -2.832 7.674 -2.394 Q 7.356 -1.956 7.002 -1.626 Q 6.648 -1.296 6.336 -1.044 L 6.336 -0.972 L 7.344 -0.972 Q 7.704 -0.972 7.89 -1.092 Q 8.076 -1.212 8.19 -1.47 Q 8.304 -1.728 8.424 -2.124 L 8.772 -2.124 Z " /></symbol><use href="#STIXTwoMathRegular_868" transform="translate(170.674 -1404.356) scale(5.667)" fill="black" /></g></g></g></svg>