<?xml version="1.0" encoding="utf-8" standalone="no"?>
<!DOCTYPE svg PUBLIC "-//W3C//DTD SVG 1.1//EN"
  "http://www.w3.org/Graphics/SVG/1.1/DTD/svg11.dtd">
<svg xmlns:xlink="http://www.w3.org/1999/xlink" width="339.9228pt" height="262.974pt" viewBox="0 0 339.9228 262.974" xmlns="http://www.w3.org/2000/svg" version="1.1">
 <metadata>
  <rdf:RDF xmlns:dc="http://purl.org/dc/elements/1.1/" xmlns:cc="http://creativecommons.org/ns#" xmlns:rdf="http://www.w3.org/1999/02/22-rdf-syntax-ns#">
   <cc:Work>
    <dc:type rdf:resource="http://purl.org/dc/dcmitype/StillImage"/>
    <dc:date>2023-01-03T18:59:21.651035</dc:date>
    <dc:format>image/svg+xml</dc:format>
    <dc:creator>
     <cc:Agent>
      <dc:title>Matplotlib v3.6.2, https://matplotlib.org/</dc:title>
     </cc:Agent>
    </dc:creator>
   </cc:Work>
  </rdf:RDF>
 </metadata>
 <defs>
  <style type="text/css">*{stroke-linejoin: round; stroke-linecap: butt}</style>
 </defs>
 <g id="figure_1">
  <g id="patch_1">
   <path d="M 0 262.974 
L 339.9228 262.974 
L 339.9228 0 
L 0 0 
L 0 262.974 
z
" style="fill: none"/>
  </g>
  <g id="axes_1">
   <g id="patch_2">
    <path d="M 71.7048 156.63 
C 75.762407 156.63 79.654372 155.017895 82.523534 152.148734 
C 85.392695 149.279572 87.0048 145.387607 87.0048 141.33 
C 87.0048 137.272393 85.392695 133.380428 82.523534 130.511266 
C 79.654372 127.642105 75.762407 126.03 71.7048 126.03 
C 67.647193 126.03 63.755228 127.642105 60.886066 130.511266 
C 58.016905 133.380428 56.4048 137.272393 56.4048 141.33 
C 56.4048 145.387607 58.016905 149.279572 60.886066 152.148734 
C 63.755228 155.017895 67.647193 156.63 71.7048 156.63 
L 71.7048 156.63 
z
" clip-path="url(#pc9b359f2bb)" style="fill: none; stroke: #000000; stroke-linejoin: miter"/>
   </g>
   <g id="patch_3">
    <path d="M 71.7048 156.63 
C 75.762407 156.63 79.654372 155.017895 82.523534 152.148734 
C 85.392695 149.279572 87.0048 145.387607 87.0048 141.33 
C 87.0048 137.272393 85.392695 133.380428 82.523534 130.511266 
C 79.654372 127.642105 75.762407 126.03 71.7048 126.03 
C 67.647193 126.03 63.755228 127.642105 60.886066 130.511266 
C 58.016905 133.380428 56.4048 137.272393 56.4048 141.33 
C 56.4048 145.387607 58.016905 149.279572 60.886066 152.148734 
C 63.755228 155.017895 67.647193 156.63 71.7048 156.63 
L 71.7048 156.63 
z
" clip-path="url(#pc9b359f2bb)" style="fill: none; stroke: #000000; stroke-linejoin: miter"/>
   </g>
   <g id="line2d_1">
    <path d="M 71.7048 233.13 
L 71.7048 156.63 
L 71.7048 156.63 
M 71.7048 126.03 
L 71.7048 126.03 
L 71.7048 49.53 
" clip-path="url(#pc9b359f2bb)" style="fill: none; stroke: #000000; stroke-linecap: round"/>
   </g>
   <g id="line2d_2">
    <path d="M 74.7648 148.98 
L 68.6448 148.98 
" clip-path="url(#pc9b359f2bb)" style="fill: none; stroke: #000000; stroke-linecap: round"/>
   </g>
   <g id="line2d_3">
    <path d="M 71.7048 136.74 
L 71.7048 130.62 
" clip-path="url(#pc9b359f2bb)" style="fill: none; stroke: #000000; stroke-linecap: round"/>
   </g>
   <g id="line2d_4">
    <path d="M 74.7648 133.68 
L 68.6448 133.68 
" clip-path="url(#pc9b359f2bb)" style="fill: none; stroke: #000000; stroke-linecap: round"/>
   </g>
   <g id="line2d_5">
    <path d="M 71.7048 49.53 
L 148.2048 49.53 
L 150.7548 41.88 
L 155.8548 57.18 
L 160.9548 41.88 
L 166.0548 57.18 
L 171.1548 41.88 
L 176.2548 57.18 
L 178.8048 49.53 
L 255.3048 49.53 
" clip-path="url(#pc9b359f2bb)" style="fill: none; stroke: #000000; stroke-linecap: round"/>
   </g>
   <g id="line2d_6">
    <path d="M 255.3048 49.53 
L 255.3048 138.576 
M 262.9548 138.576 
L 247.6548 138.576 
M 262.9548 144.084 
L 247.6548 144.084 
M 255.3048 144.084 
L 255.3048 233.13 
" clip-path="url(#pc9b359f2bb)" style="fill: none; stroke: #000000; stroke-linecap: round"/>
   </g>
   <g id="line2d_7">
    <path d="M 255.3048 233.13 
L 163.5048 233.13 
L 71.7048 233.13 
" clip-path="url(#pc9b359f2bb)" style="fill: none; stroke: #000000; stroke-linecap: round"/>
   </g>
   <g id="line2d_8">
    <path d="M 71.7048 233.13 
L 71.7048 245.37 
L 64.0548 245.37 
L 79.3548 245.37 
M 66.3498 249.042 
L 77.0598 249.042 
M 70.1748 252.714 
L 73.2348 252.714 
" clip-path="url(#pc9b359f2bb)" style="fill: none; stroke: #000000; stroke-linecap: round"/>
   </g>
   <g id="line2d_9">
    <path d="M 71.7048 233.13 
L 71.7048 156.63 
L 71.7048 156.63 
M 71.7048 126.03 
L 71.7048 126.03 
L 71.7048 49.53 
" clip-path="url(#pc9b359f2bb)" style="fill: none; stroke: #000000; stroke-linecap: round"/>
   </g>
   <g id="line2d_10">
    <path d="M 74.7648 148.98 
L 68.6448 148.98 
" clip-path="url(#pc9b359f2bb)" style="fill: none; stroke: #000000; stroke-linecap: round"/>
   </g>
   <g id="line2d_11">
    <path d="M 71.7048 136.74 
L 71.7048 130.62 
" clip-path="url(#pc9b359f2bb)" style="fill: none; stroke: #000000; stroke-linecap: round"/>
   </g>
   <g id="line2d_12">
    <path d="M 74.7648 133.68 
L 68.6448 133.68 
" clip-path="url(#pc9b359f2bb)" style="fill: none; stroke: #000000; stroke-linecap: round"/>
   </g>
   <g id="line2d_13">
    <path d="M 71.7048 49.53 
L 148.2048 49.53 
L 150.7548 41.88 
L 155.8548 57.18 
L 160.9548 41.88 
L 166.0548 57.18 
L 171.1548 41.88 
L 176.2548 57.18 
L 178.8048 49.53 
L 255.3048 49.53 
" clip-path="url(#pc9b359f2bb)" style="fill: none; stroke: #000000; stroke-linecap: round"/>
   </g>
   <g id="line2d_14">
    <path d="M 255.3048 49.53 
L 255.3048 138.576 
M 262.9548 138.576 
L 247.6548 138.576 
M 262.9548 144.084 
L 247.6548 144.084 
M 255.3048 144.084 
L 255.3048 233.13 
" clip-path="url(#pc9b359f2bb)" style="fill: none; stroke: #000000; stroke-linecap: round"/>
   </g>
   <g id="line2d_15">
    <path d="M 255.3048 233.13 
L 163.5048 233.13 
L 71.7048 233.13 
" clip-path="url(#pc9b359f2bb)" style="fill: none; stroke: #000000; stroke-linecap: round"/>
   </g>
   <g id="line2d_16">
    <path d="M 71.7048 233.13 
L 71.7048 245.37 
L 64.0548 245.37 
L 79.3548 245.37 
M 66.3498 249.042 
L 77.0598 249.042 
M 70.1748 252.714 
L 73.2348 252.714 
" clip-path="url(#pc9b359f2bb)" style="fill: none; stroke: #000000; stroke-linecap: round"/>
   </g>
   <g id="text_1">
    <g clip-path="url(#pc9b359f2bb)">
     <!-- 10V -->
     <g transform="translate(14.595581 146.735273) scale(0.225 -0.225)">
      <defs>
       <path id="TimesNewRomanPSMT-31" d="M 750 3822 
L 1781 4325 
L 1884 4325 
L 1884 747 
Q 1884 391 1914 303 
Q 1944 216 2037 169 
Q 2131 122 2419 116 
L 2419 0 
L 825 0 
L 825 116 
Q 1125 122 1212 167 
Q 1300 213 1334 289 
Q 1369 366 1369 747 
L 1369 3034 
Q 1369 3497 1338 3628 
Q 1316 3728 1258 3775 
Q 1200 3822 1119 3822 
Q 1003 3822 797 3725 
L 750 3822 
z
" transform="scale(0.015625)"/>
       <path id="TimesNewRomanPSMT-30" d="M 231 2094 
Q 231 2819 450 3342 
Q 669 3866 1031 4122 
Q 1313 4325 1613 4325 
Q 2100 4325 2488 3828 
Q 2972 3213 2972 2159 
Q 2972 1422 2759 906 
Q 2547 391 2217 158 
Q 1888 -75 1581 -75 
Q 975 -75 572 641 
Q 231 1244 231 2094 
z
M 844 2016 
Q 844 1141 1059 588 
Q 1238 122 1591 122 
Q 1759 122 1940 273 
Q 2122 425 2216 781 
Q 2359 1319 2359 2297 
Q 2359 3022 2209 3506 
Q 2097 3866 1919 4016 
Q 1791 4119 1609 4119 
Q 1397 4119 1231 3928 
Q 1006 3669 925 3112 
Q 844 2556 844 2016 
z
" transform="scale(0.015625)"/>
       <path id="TimesNewRomanPSMT-56" d="M 4544 4238 
L 4544 4122 
Q 4319 4081 4203 3978 
Q 4038 3825 3909 3509 
L 2431 -97 
L 2316 -97 
L 728 3556 
Q 606 3838 556 3900 
Q 478 3997 364 4051 
Q 250 4106 56 4122 
L 56 4238 
L 1788 4238 
L 1788 4122 
Q 1494 4094 1406 4022 
Q 1319 3950 1319 3838 
Q 1319 3681 1463 3350 
L 2541 866 
L 3541 3319 
Q 3688 3681 3688 3822 
Q 3688 3913 3597 3995 
Q 3506 4078 3291 4113 
Q 3275 4116 3238 4122 
L 3238 4238 
L 4544 4238 
z
" transform="scale(0.015625)"/>
      </defs>
      <use xlink:href="#TimesNewRomanPSMT-31"/>
      <use xlink:href="#TimesNewRomanPSMT-30" x="50"/>
      <use xlink:href="#TimesNewRomanPSMT-56" x="100"/>
     </g>
    </g>
   </g>
   <g id="text_2">
    <g clip-path="url(#pc9b359f2bb)">
     <!-- 100KΩ -->
     <g transform="translate(130.145034 34.007109) scale(0.225 -0.225)">
      <defs>
       <path id="TimesNewRomanPSMT-4b" d="M 1913 2350 
L 3475 797 
Q 3859 413 4131 273 
Q 4403 134 4675 116 
L 4675 0 
L 2659 0 
L 2659 116 
Q 2841 116 2920 177 
Q 3000 238 3000 313 
Q 3000 388 2970 447 
Q 2941 506 2775 669 
L 1313 2116 
L 1313 750 
Q 1313 428 1353 325 
Q 1384 247 1484 191 
Q 1619 116 1769 116 
L 1913 116 
L 1913 0 
L 106 0 
L 106 116 
L 256 116 
Q 519 116 638 269 
Q 713 369 713 750 
L 713 3488 
Q 713 3809 672 3916 
Q 641 3991 544 4047 
Q 406 4122 256 4122 
L 106 4122 
L 106 4238 
L 1913 4238 
L 1913 4122 
L 1769 4122 
Q 1622 4122 1484 4050 
Q 1388 4000 1350 3900 
Q 1313 3800 1313 3488 
L 1313 2191 
Q 1375 2250 1741 2588 
Q 2669 3438 2863 3722 
Q 2947 3847 2947 3941 
Q 2947 4013 2881 4067 
Q 2816 4122 2659 4122 
L 2563 4122 
L 2563 4238 
L 4119 4238 
L 4119 4122 
Q 3981 4119 3868 4084 
Q 3756 4050 3593 3951 
Q 3431 3853 3194 3634 
Q 3125 3572 2559 2994 
L 1913 2350 
z
" transform="scale(0.015625)"/>
       <path id="TimesNewRomanPSMT-3a9" d="M 188 978 
L 303 978 
Q 316 756 434 668 
Q 553 581 813 581 
L 1666 581 
L 1659 791 
Q 1163 891 753 1344 
Q 344 1797 344 2488 
Q 344 3253 914 3793 
Q 1484 4334 2403 4334 
Q 3294 4334 3859 3823 
Q 4425 3313 4425 2516 
Q 4425 1869 4073 1417 
Q 3722 966 3122 791 
L 3091 581 
L 3959 581 
Q 4256 581 4351 693 
Q 4447 806 4453 978 
L 4569 978 
L 4569 0 
L 2819 0 
L 2900 944 
Q 3706 1197 3706 2434 
Q 3706 3244 3311 3675 
Q 2916 4106 2384 4106 
Q 1819 4106 1448 3648 
Q 1078 3191 1078 2478 
Q 1078 1963 1243 1539 
Q 1409 1116 1878 944 
L 1938 0 
L 188 0 
L 188 978 
z
" transform="scale(0.015625)"/>
      </defs>
      <use xlink:href="#TimesNewRomanPSMT-31"/>
      <use xlink:href="#TimesNewRomanPSMT-30" x="50"/>
      <use xlink:href="#TimesNewRomanPSMT-30" x="100"/>
      <use xlink:href="#TimesNewRomanPSMT-4b" x="150"/>
      <use xlink:href="#TimesNewRomanPSMT-3a9" x="222.216797"/>
     </g>
    </g>
   </g>
   <g id="text_3">
    <g clip-path="url(#pc9b359f2bb)">
     <!-- 0.1μF -->
     <g transform="translate(266.0148 146.693086) scale(0.225 -0.225)">
      <defs>
       <path id="TimesNewRomanPSMT-2e" d="M 800 606 
Q 947 606 1047 504 
Q 1147 403 1147 259 
Q 1147 116 1045 14 
Q 944 -88 800 -88 
Q 656 -88 554 14 
Q 453 116 453 259 
Q 453 406 554 506 
Q 656 606 800 606 
z
" transform="scale(0.015625)"/>
       <path id="TimesNewRomanPSMT-3bc" d="M 2275 519 
Q 1709 -88 1291 -88 
Q 1022 -88 791 119 
L 791 -47 
Q 791 -334 878 -625 
Q 978 -947 978 -1050 
Q 978 -1194 887 -1287 
Q 797 -1381 663 -1381 
Q 525 -1381 444 -1272 
Q 363 -1163 363 -1009 
Q 363 -897 444 -603 
Q 538 -278 538 28 
L 538 2863 
L 1053 2863 
L 1053 1009 
Q 1053 728 1101 597 
Q 1150 466 1273 383 
Q 1397 300 1553 300 
Q 1831 300 2275 681 
L 2275 2863 
L 2794 2863 
L 2794 691 
Q 2794 416 2850 311 
Q 2906 206 3041 206 
Q 3253 206 3316 622 
L 3428 622 
Q 3369 -88 2828 -88 
Q 2594 -88 2439 70 
Q 2284 228 2275 519 
z
" transform="scale(0.015625)"/>
       <path id="TimesNewRomanPSMT-46" d="M 1309 4006 
L 1309 2341 
L 2081 2341 
Q 2347 2341 2470 2458 
Q 2594 2575 2634 2922 
L 2750 2922 
L 2750 1488 
L 2634 1488 
Q 2631 1734 2570 1850 
Q 2509 1966 2401 2023 
Q 2294 2081 2081 2081 
L 1309 2081 
L 1309 750 
Q 1309 428 1350 325 
Q 1381 247 1481 191 
Q 1619 116 1769 116 
L 1922 116 
L 1922 0 
L 103 0 
L 103 116 
L 253 116 
Q 516 116 634 269 
Q 709 369 709 750 
L 709 3488 
Q 709 3809 669 3913 
Q 638 3991 541 4047 
Q 406 4122 253 4122 
L 103 4122 
L 103 4238 
L 3256 4238 
L 3297 3306 
L 3188 3306 
Q 3106 3603 2998 3742 
Q 2891 3881 2733 3943 
Q 2575 4006 2244 4006 
L 1309 4006 
z
" transform="scale(0.015625)"/>
      </defs>
      <use xlink:href="#TimesNewRomanPSMT-30"/>
      <use xlink:href="#TimesNewRomanPSMT-2e" x="50"/>
      <use xlink:href="#TimesNewRomanPSMT-31" x="75"/>
      <use xlink:href="#TimesNewRomanPSMT-3bc" x="125"/>
      <use xlink:href="#TimesNewRomanPSMT-46" x="178.613281"/>
     </g>
    </g>
   </g>
   <g id="text_4">
    <g clip-path="url(#pc9b359f2bb)">
     <!-- 10V -->
     <g transform="translate(14.595581 146.735273) scale(0.225 -0.225)">
      <use xlink:href="#TimesNewRomanPSMT-31"/>
      <use xlink:href="#TimesNewRomanPSMT-30" x="50"/>
      <use xlink:href="#TimesNewRomanPSMT-56" x="100"/>
     </g>
    </g>
   </g>
   <g id="text_5">
    <g clip-path="url(#pc9b359f2bb)">
     <!-- 100KΩ -->
     <g transform="translate(130.145034 34.007109) scale(0.225 -0.225)">
      <use xlink:href="#TimesNewRomanPSMT-31"/>
      <use xlink:href="#TimesNewRomanPSMT-30" x="50"/>
      <use xlink:href="#TimesNewRomanPSMT-30" x="100"/>
      <use xlink:href="#TimesNewRomanPSMT-4b" x="150"/>
      <use xlink:href="#TimesNewRomanPSMT-3a9" x="222.216797"/>
     </g>
    </g>
   </g>
   <g id="text_6">
    <g clip-path="url(#pc9b359f2bb)">
     <!-- 0.1μF -->
     <g transform="translate(266.0148 146.693086) scale(0.225 -0.225)">
      <use xlink:href="#TimesNewRomanPSMT-30"/>
      <use xlink:href="#TimesNewRomanPSMT-2e" x="50"/>
      <use xlink:href="#TimesNewRomanPSMT-31" x="75"/>
      <use xlink:href="#TimesNewRomanPSMT-3bc" x="125"/>
      <use xlink:href="#TimesNewRomanPSMT-46" x="178.613281"/>
     </g>
    </g>
   </g>
  </g>
 </g>
 <defs>
  <clipPath id="pc9b359f2bb">
   <rect x="7.2" y="7.2" width="325.5228" height="248.574"/>
  </clipPath>
 </defs>
</svg>
