<?xml version="1.0" standalone="no"?>
<!DOCTYPE svg PUBLIC "-//W3C//DTD SVG 20010904//EN"
 "http://www.w3.org/TR/2001/REC-SVG-20010904/DTD/svg10.dtd">
<svg version="1.0" xmlns="http://www.w3.org/2000/svg"
 width="211.000000pt" height="164.000000pt" viewBox="0 0 211.000000 164.000000"
 preserveAspectRatio="xMidYMid meet">
<metadata>
Created by potrace 1.16, written by Peter Selinger 2001-2019
</metadata>
<g transform="translate(0.000000,164.000000) scale(0.100000,-0.100000)"
fill="#000000" stroke="none">
<path d="M830 1430 c0 -5 5 -10 10 -10 15 0 12 -57 -2 -63 -7 -3 3 -5 22 -5
19 0 29 2 23 5 -8 2 -13 22 -13 44 0 32 -3 39 -20 39 -11 0 -20 -4 -20 -10z"/>
<path d="M904 1427 c-3 -9 -4 -28 -2 -44 2 -22 8 -28 28 -28 23 0 25 4 25 40
0 34 -3 40 -23 43 -13 2 -24 -3 -28 -11z m40 -13 c9 -23 -3 -56 -17 -51 -22 7
-21 67 2 67 5 0 12 -7 15 -16z"/>
<path d="M984 1427 c-3 -9 -4 -28 -2 -44 2 -22 8 -28 28 -28 23 0 25 4 25 40
0 34 -3 40 -23 43 -13 2 -24 -3 -28 -11z m40 -13 c9 -23 -3 -56 -17 -51 -22 7
-21 67 2 67 5 0 12 -7 15 -16z"/>
<path d="M1060 1394 c0 -28 4 -43 10 -39 6 4 8 11 5 16 -10 15 12 10 25 -6 7
-8 25 -15 41 -15 31 0 36 9 18 27 -14 14 -2 53 16 53 25 0 36 -34 19 -58 -14
-20 -14 -22 3 -22 14 0 19 8 21 31 3 38 -13 59 -45 59 -28 0 -46 -35 -31 -62
13 -25 -14 -24 -37 2 -17 19 -17 20 6 39 13 11 19 20 14 21 -6 0 -17 -6 -24
-12 -11 -10 -14 -10 -18 0 -10 27 -23 9 -23 -34z"/>
<path d="M874 1268 l-10 -33 -157 -3 -157 -3 0 -153 0 -153 -29 -6 c-41 -8
-97 -61 -112 -104 -15 -47 -7 -114 20 -152 12 -17 44 -41 71 -53 l50 -23 0
-197 0 -198 -35 0 c-19 0 -35 -4 -35 -10 0 -6 35 -10 85 -10 50 0 85 4 85 10
0 6 -18 10 -40 10 l-40 0 0 50 0 50 460 0 460 0 0 215 0 215 40 0 c22 0 40 5
40 10 0 6 -37 10 -90 10 -53 0 -90 -4 -90 -10 0 -5 18 -10 40 -10 l40 0 0
-205 0 -205 -450 0 -450 0 0 139 0 139 38 12 c85 28 137 120 113 201 -15 51
-71 106 -116 115 l-35 6 0 139 0 139 150 0 150 0 12 26 c12 25 12 24 32 -32
12 -32 26 -59 32 -61 5 -2 19 25 30 59 l20 63 20 -59 c11 -33 25 -61 31 -63 6
-2 19 21 28 52 10 30 21 55 25 55 3 0 14 -25 24 -55 9 -30 21 -55 26 -55 5 0
14 16 20 35 l12 35 144 0 144 0 0 -205 0 -205 -40 0 c-22 0 -40 -4 -40 -10 0
-6 37 -10 90 -10 53 0 90 4 90 10 0 6 -18 10 -40 10 l-40 0 0 220 0 220 -161
0 c-152 0 -161 -1 -166 -20 -9 -33 -18 -23 -37 36 -10 30 -22 54 -29 51 -6 -2
-18 -24 -26 -49 -9 -26 -19 -49 -23 -53 -3 -4 -13 19 -22 49 -9 31 -22 56 -29
56 -7 0 -21 -28 -32 -62 l-19 -61 -20 61 c-22 69 -38 78 -52 30z m-249 -388
c50 -24 75 -65 75 -122 0 -88 -63 -144 -152 -136 -139 14 -171 200 -46 261 44
22 73 21 123 -3z"/>
<path d="M550 855 c0 -8 -7 -15 -15 -15 -8 0 -15 -4 -15 -10 0 -5 7 -10 15
-10 8 0 15 -7 15 -15 0 -8 5 -15 10 -15 6 0 10 7 10 15 0 8 7 15 15 15 8 0 15
5 15 10 0 6 -7 10 -15 10 -8 0 -15 7 -15 15 0 8 -4 15 -10 15 -5 0 -10 -7 -10
-15z"/>
<path d="M520 680 c0 -5 18 -10 40 -10 22 0 40 5 40 10 0 6 -18 10 -40 10 -22
0 -40 -4 -40 -10z"/>
<path d="M150 799 c0 -5 5 -7 10 -4 6 4 10 -8 10 -29 0 -19 -6 -37 -12 -39 -7
-3 3 -5 22 -5 19 0 29 2 23 5 -8 2 -13 22 -13 44 0 32 -3 39 -20 39 -11 0 -20
-5 -20 -11z"/>
<path d="M224 797 c-3 -9 -4 -28 -2 -44 2 -22 8 -28 28 -28 23 0 25 4 25 40 0
34 -3 40 -23 43 -13 2 -24 -3 -28 -11z m40 -13 c9 -23 -3 -56 -17 -51 -22 7
-21 67 2 67 5 0 12 -7 15 -16z"/>
<path d="M295 793 c4 -10 12 -30 17 -45 13 -38 25 -35 43 9 20 47 13 69 -8 23
l-15 -35 -13 33 c-7 17 -17 32 -22 32 -5 0 -6 -8 -2 -17z"/>
<path d="M1614 797 c-3 -9 -4 -28 -2 -44 2 -22 8 -28 28 -28 23 0 25 4 25 40
0 34 -3 40 -23 43 -13 2 -24 -3 -28 -11z m40 -13 c7 -19 -1 -54 -14 -54 -12 0
-21 31 -15 51 8 23 21 24 29 3z"/>
<path d="M1720 800 c0 -5 5 -10 10 -10 15 0 12 -57 -2 -63 -7 -3 3 -5 22 -5
19 0 29 2 23 5 -8 2 -13 22 -13 44 0 32 -3 39 -20 39 -11 0 -20 -4 -20 -10z"/>
<path d="M1881 763 c1 -27 4 -38 6 -26 2 13 13 24 26 26 l22 4 -22 2 c-13 0
-23 7 -23 15 0 8 10 17 23 19 19 4 18 4 -5 6 -27 1 -28 -1 -27 -46z"/>
<path d="M1802 740 c0 -30 2 -47 5 -37 3 11 14 17 32 17 25 0 27 3 23 35 -5
43 -22 46 -22 4 0 -39 -22 -34 -31 7 -5 21 -7 13 -7 -26z"/>
<path d="M500 140 c0 -6 28 -10 65 -10 37 0 65 4 65 10 0 6 -28 10 -65 10 -37
0 -65 -4 -65 -10z"/>
<path d="M540 100 c0 -5 11 -10 25 -10 14 0 25 5 25 10 0 6 -11 10 -25 10 -14
0 -25 -4 -25 -10z"/>
</g>
</svg>
